# xmcd
#
# Track frame offsets:
#	150
#	22170
#	40890
#	57345
#	68965
#	93292
#	107517
#	139232
#	168660
#	182397
#	210492
#	236107
#	253837
#	274560
#	293715
#
# Disc length: 4177 seconds
#
# Revision: 2
# Processed by: cddbd v1.4PL0 Copyright (c) Steve Scherf et al.
# Submitted via: audiograbber 1.81.03
#
DISCID=db104f0f
DTITLE=Various Artist - Indigo 5th Anniversary Box [CD3)
DYEAR=1900
DGENRE=Blues
TTITLE0=Alexia Korner Blues Inc. - Louise
TTITLE1=Duster Bennett - Jumpin' At Shadows
TTITLE2=The John Drummer Bluse Band - Ridin' In The Moonlight
TTITLE3=Zoot Money's Big Roll Band - People Gonna Talk
TTITLE4=John Mayall - You Must Be Crazy
TTITLE5=Jo Ann Kelly - I've Been Scorned
TTITLE6=Herbie Goins - Woke Up This Morning
TTITLE7=Paul Jones - Blue Coller
TTITLE8=Alan Price and The Electric Blues Company - I Put A Spell On You
TTITLE9=Chris Farlow - Tough On Me, Tough On You
TTITLE10=Stan Webb's Chicken Shack - I'd Rather Go Blind
TTITLE11=Mick Abrahams - Leaving Home Blues
TTITLE12=Ruby Turner - Call Me By Name
TTITLE13=Paul Lamb and The King Snakes - The Pillow
TTITLE14=Fred Jones - Everybody's Gettin' Them Some
EXTD=
EXTT0=
EXTT1=
EXTT2=
EXTT3=
EXTT4=
EXTT5=
EXTT6=
EXTT7=
EXTT8=
EXTT9=
EXTT10=
EXTT11=
EXTT12=
EXTT13=
EXTT14=
PLAYORDER=
